<?xml version="1.0" standalone="no"?>
<!DOCTYPE svg PUBLIC "-//W3C//DTD SVG 20010904//EN"
 "http://www.w3.org/TR/2001/REC-SVG-20010904/DTD/svg10.dtd">
<svg version="1.0" xmlns="http://www.w3.org/2000/svg"
 width="1500.000000pt" height="1400.000000pt" viewBox="0 0 1500.000000 1400.000000"
 preserveAspectRatio="xMidYMid meet">

<g transform="translate(0.000000,1400.000000) scale(0.100000,-0.100000)"
fill="#000000" stroke="none">
<path d="M0 7000 l0 -7000 7500 0 7500 0 0 7000 0 7000 -7500 0 -7500 0 0
-7000z m11805 2775 c20 -4 20 -13 25 -432 6 -536 5 -683 -4 -755 l-7 -58
-1582 -1 c-870 -1 -1595 -4 -1612 -8 l-30 -6 -3 -758 c-2 -715 -1 -758 15
-765 10 -4 54 -6 98 -4 240 7 2908 10 2927 3 l23 -9 3 -540 c2 -297 1 -565 -3
-596 l-7 -56 -1497 -1 c-823 -1 -1509 -4 -1526 -8 l-30 -6 -5 -1117 c-3 -725
-9 -1121 -15 -1127 -6 -6 -222 -12 -580 -16 -313 -3 -598 -6 -633 -8 -47 -1
-65 2 -73 13 -6 10 -8 379 -7 1028 l3 1013 -480 -3 c-264 -2 -487 -7 -495 -12
-8 -4 -46 -45 -85 -90 -38 -46 -304 -355 -590 -687 -286 -332 -614 -714 -730
-849 -115 -134 -243 -279 -283 -322 l-74 -77 -646 -5 c-356 -3 -679 -8 -718
-11 -94 -9 -104 1 -104 96 0 39 5 80 11 92 7 11 123 147 258 301 403 459 983
1121 1264 1444 87 100 179 199 204 221 43 38 49 61 16 61 -36 0 -356 116 -452
165 -349 175 -608 435 -776 780 -102 207 -158 397 -196 660 -19 131 -21 180
-16 390 4 207 8 258 31 371 92 456 300 839 603 1110 359 321 730 487 1254 561
112 15 271 18 1639 23 1663 6 4853 3 4885 -5z"/>
<path d="M6345 9640 c-1030 -7 -1046 -8 -1284 -66 -837 -205 -1392 -802 -1507
-1620 -19 -141 -22 -411 -4 -564 64 -572 310 -1012 719 -1286 91 -61 250 -143
347 -180 71 -26 292 -86 389 -104 116 -22 118 -26 47 -97 -26 -26 -61 -68 -78
-93 -16 -25 -268 -317 -559 -650 -292 -333 -627 -717 -745 -854 -118 -138
-257 -297 -308 -354 -68 -75 -91 -107 -83 -115 7 -7 54 -11 123 -10 62 1 297
1 522 1 225 1 443 4 483 8 l74 6 147 171 c81 94 183 212 227 262 74 84 193
223 560 650 351 409 614 714 655 761 25 28 73 83 108 122 l63 72 592 -2 592
-3 3 -1010 c3 -875 5 -1012 18 -1025 17 -18 24 -18 577 -8 219 4 402 10 407
13 6 3 10 471 10 1122 0 802 3 1120 11 1130 10 11 275 13 1531 13 1206 0 1519
3 1523 13 2 6 5 216 7 465 l3 453 -1490 -4 c-819 -1 -1502 -6 -1518 -10 -15
-4 -36 -3 -47 3 -20 11 -20 24 -20 903 0 681 3 896 12 905 9 9 383 12 1620 12
884 0 1608 3 1609 8 0 4 2 180 4 392 2 212 7 427 10 478 l7 92 -1344 0 c-738
0 -1730 2 -2203 4 -473 2 -1287 0 -1810 -4z m1083 -1945 c1 -550 -1 -1020 -5
-1045 l-9 -45 -954 0 c-1036 0 -1027 0 -1228 57 -190 53 -313 126 -438 260
-290 311 -352 836 -146 1243 91 181 290 362 491 446 81 34 202 66 296 78 39 5
502 8 1030 7 l960 -1 3 -1000z"/>
<path d="M5425 8545 c-226 -42 -442 -169 -571 -336 -54 -70 -126 -219 -148
-305 -83 -322 -4 -678 198 -901 63 -70 204 -163 297 -197 165 -60 150 -59
1152 -63 744 -3 918 -1 922 9 2 7 6 417 7 911 l3 897 -895 -1 c-689 -1 -911
-4 -965 -14z"/>
</g>
</svg>
